<svg width="49" height="50" viewBox="0 0 49 50" fill="none" xmlns="http://www.w3.org/2000/svg">
<rect y="0.5" width="49" height="49" rx="16" fill="#763D8B"/>
<rect x="3" y="3.5" width="43" height="43" rx="15" fill="#540D6E"/>
<path fill-rule="evenodd" clip-rule="evenodd" d="M17.4091 5.5H31.5909C34.8809 5.50366 38.0351 6.81222 40.3614 9.13858C42.6878 11.4649 43.9963 14.6191 44 17.9091V32.0909C43.9963 35.3809 42.6878 38.5351 40.3614 40.8614C38.0351 43.1878 34.8809 44.4963 31.5909 44.5H17.4091C14.1191 44.4963 10.9649 43.1878 8.63858 40.8614C6.31222 38.5351 5.00366 35.3809 5 32.0909V17.9091C5.00366 14.6191 6.31222 11.4649 8.63858 9.13858C10.9649 6.81222 14.1191 5.50366 17.4091 5.5ZM26.2857 23.2143H35.2143C35.6879 23.2143 36.1421 23.4024 36.477 23.7373C36.8119 24.0722 37 24.5264 37 25C37 25.4736 36.8119 25.9278 36.477 26.2627C36.1421 26.5976 35.6879 26.7857 35.2143 26.7857H26.2857V35.7143C26.2857 36.1879 26.0976 36.6421 25.7627 36.977C25.4278 37.3119 24.9736 37.5 24.5 37.5C24.0264 37.5 23.5722 37.3119 23.2373 36.977C22.9024 36.6421 22.7143 36.1879 22.7143 35.7143V26.7857H13.7857C13.3121 26.7857 12.8579 26.5976 12.523 26.2627C12.1881 25.9278 12 25.4736 12 25C12 24.5264 12.1881 24.0722 12.523 23.7373C12.8579 23.4024 13.3121 23.2143 13.7857 23.2143H22.7143V14.2857C22.7143 13.8121 22.9024 13.3579 23.2373 13.023C23.5722 12.6881 24.0264 12.5 24.5 12.5C24.9736 12.5 25.4278 12.6881 25.7627 13.023C26.0976 13.3579 26.2857 13.8121 26.2857 14.2857V23.2143Z" fill="white"/>
</svg>
