<svg width="80" height="48" viewBox="0 0 80 48" fill="none" xmlns="http://www.w3.org/2000/svg">
<rect width="80" height="48" fill="#E6E6E6"/>
<g clip-path="url(#clip0_361_5164)">
<path d="M34.6685 36.5141C34.1559 36.1731 33.7016 35.7517 33.323 35.2661C32.9066 34.7649 32.5208 34.2391 32.1677 33.6915C31.339 32.4775 30.6891 31.1506 30.238 29.7517C29.696 28.1267 29.4336 26.5691 29.4336 25.0457C29.4336 23.3443 29.8017 21.8591 30.5215 20.6111C31.0552 19.6356 31.8397 18.8205 32.7941 18.2499C33.719 17.6755 34.7817 17.3611 35.8702 17.3399C36.2513 17.3399 36.6616 17.3952 37.0971 17.5008C37.4099 17.5894 37.791 17.7291 38.2565 17.903C38.8488 18.1313 39.1747 18.2711 39.2852 18.3052C39.6321 18.4319 39.9238 18.4872 40.1529 18.4872C40.3268 18.4872 40.5722 18.4319 40.8508 18.3474C41.0077 18.2922 41.3034 18.1947 41.7267 18.0135C42.146 17.8608 42.4758 17.7299 42.7383 17.6324C43.1405 17.5138 43.5297 17.4041 43.8766 17.3489C44.2879 17.284 44.7053 17.2669 45.1205 17.2977C45.8401 17.3447 46.5488 17.4972 47.2241 17.7503C48.3283 18.1947 49.2212 18.8886 49.8858 19.8749C49.6049 20.0481 49.3413 20.2478 49.0985 20.4713C48.5701 20.9398 48.12 21.4897 47.7652 22.1004C47.3015 22.9349 47.0611 23.8749 47.0673 24.8296C47.0843 26.002 47.385 27.0347 47.9773 27.9276C48.4127 28.5894 48.9787 29.1554 49.6405 29.5908C49.9793 29.8191 50.271 29.9759 50.5505 30.0816C50.4197 30.4878 50.2799 30.8811 50.115 31.2711C49.7409 32.1456 49.2875 32.9841 48.7605 33.776C48.2909 34.4577 47.9228 34.9655 47.6433 35.3035C47.2078 35.8194 46.7886 36.2135 46.3653 36.4881C45.8997 36.7969 45.3497 36.9618 44.7907 36.9618C44.4121 36.9763 44.0336 36.9305 43.6694 36.8261C43.3566 36.7205 43.047 36.6059 42.7423 36.4751C42.4256 36.3296 42.099 36.2066 41.7649 36.1071C40.9392 35.895 40.0734 35.8936 39.247 36.103C38.9082 36.2005 38.5823 36.3142 38.2606 36.454C37.808 36.6441 37.5074 36.7717 37.3335 36.8261C36.9866 36.9277 36.6267 36.9911 36.2627 37.0122C35.6996 37.0122 35.1747 36.8513 34.6547 36.5255L34.6685 36.5141ZM42.0948 16.5144C41.3587 16.8825 40.6558 17.0393 39.9579 16.9881C39.8482 16.2853 39.9579 15.5662 40.2496 14.7789C40.4979 14.1119 40.8648 13.4953 41.3327 12.9589C41.8267 12.3943 42.4261 11.9314 43.0974 11.5964C43.8124 11.2283 44.4941 11.0292 45.1457 11C45.2302 11.7361 45.1457 12.4601 44.8752 13.2425C44.6248 13.9342 44.2585 14.5782 43.7921 15.147C43.316 15.7124 42.7318 16.1771 42.0737 16.5136L42.0948 16.5144Z" fill="#333333"/>
</g>
<defs>
<clipPath id="clip0_361_5164">
<rect width="26" height="26" fill="white" transform="translate(27 11)"/>
</clipPath>
</defs>
</svg>
