<svg width="34" height="34" viewBox="0 0 34 34" fill="none" xmlns="http://www.w3.org/2000/svg">
<path d="M22.5672 3.48071C22.6295 3.48071 22.6919 3.48071 22.7577 3.48071C22.9106 5.38481 22.1898 6.80755 21.3138 7.83785C20.4543 8.86103 19.2774 9.85339 17.3737 9.70282C17.2468 7.82599 17.9687 6.50877 18.8435 5.48084C19.6548 4.52287 21.1422 3.67041 22.5672 3.48071Z" fill="white"/>
<path d="M28.3298 23.2994C28.3298 23.3184 28.3298 23.335 28.3298 23.3528C27.7948 24.9866 27.0317 26.3868 26.1005 27.6862C25.2504 28.8659 24.2086 30.4534 22.3485 30.4534C20.7412 30.4534 19.6736 29.4113 18.0263 29.3828C16.2838 29.3544 15.3255 30.2543 13.7323 30.4807C13.5501 30.4807 13.3678 30.4807 13.1891 30.4807C12.0192 30.31 11.075 29.3757 10.3872 28.5339C8.35893 26.0465 6.7916 22.8335 6.5 18.7218C6.5 18.3187 6.5 17.9168 6.5 17.5136C6.62346 14.571 8.04147 12.1784 9.92626 11.0188C10.921 10.4023 12.2884 9.8771 13.8111 10.1119C14.4637 10.2138 15.1303 10.4391 15.7147 10.662C16.2685 10.8766 16.961 11.2572 17.6171 11.237C18.0616 11.224 18.5037 10.9904 18.9517 10.8256C20.2638 10.3478 21.5502 9.80004 23.2457 10.0573C25.2833 10.3679 26.7295 11.2809 27.6231 12.6894C25.8994 13.7956 24.5367 15.4625 24.7695 18.3092C24.9764 20.895 26.4673 22.4079 28.3298 23.2994Z" fill="white"/>
</svg>
