<svg width="22" height="22" viewBox="0 0 22 22" fill="none" xmlns="http://www.w3.org/2000/svg">
<g clip-path="url(#clip0_3388_19504)">
<path d="M6.59534 18.4915C6.59534 18.5045 6.60415 18.5131 6.60415 18.5218C6.60856 18.5434 6.61297 18.565 6.62178 18.5823C6.63501 18.6125 6.64823 18.6428 6.66586 18.673C6.67027 18.6817 6.67468 18.6946 6.67909 18.7033C6.68349 18.7119 6.69231 18.7119 6.69672 18.7162C6.73198 18.7595 6.77605 18.7984 6.82895 18.8243C6.83335 18.8243 6.83776 18.8286 6.83776 18.8329C6.88184 18.8546 6.93473 18.8675 6.98762 18.8762H7.0317C7.08019 18.8762 7.12426 18.8675 7.16834 18.8546C7.21242 18.8416 7.25649 18.82 7.29175 18.7897L11.7391 15.5093L15.1374 17.9815C15.2124 18.0377 15.3049 18.068 15.4019 18.068C15.446 18.068 15.4901 18.0636 15.5341 18.0507C15.6664 18.0118 15.7766 17.908 15.8206 17.7784L21.533 1.44125C21.5418 1.41964 21.5462 1.39371 21.5506 1.3721C21.5506 1.36345 21.555 1.35481 21.555 1.34616C21.5595 1.32888 21.5595 1.30727 21.5595 1.28998C21.5595 1.20786 21.533 1.12574 21.4801 1.05227C21.4713 1.0393 21.4625 1.03066 21.4537 1.01769C21.3391 0.883711 21.1584 0.827525 20.9953 0.875067L0.76837 6.19544C0.600878 6.23866 0.477462 6.37264 0.446609 6.53688C0.415755 6.70111 0.486278 6.86967 0.627324 6.96475L5.73143 10.4742L6.59534 18.4915ZM8.49065 12.5185C8.48624 12.5228 8.48183 12.5315 8.47742 12.5358C8.45098 12.5617 8.43335 12.592 8.41572 12.6266C8.40249 12.6482 8.38927 12.6655 8.38045 12.6871C8.38045 12.6914 8.37164 12.6957 8.37164 12.7044L7.24327 16.3046L6.61738 10.4656L17.857 3.74919L8.49065 12.5185ZM7.85153 17.303L9.03279 13.5428L11.0074 14.9777L7.85153 17.303ZM15.1859 16.9356L9.47797 12.7865L20.1181 2.82861L15.1859 16.9356ZM18.2669 2.48717L6.16779 9.71786L1.90555 6.78755L18.2669 2.48717Z" fill="#5B88E8"/>
<path d="M1.46066 15.0542C1.57864 15.0542 1.69209 15.0108 1.78285 14.9283L4.8732 11.9715C5.05018 11.8021 5.05018 11.5286 4.8732 11.3593C4.69622 11.1899 4.41033 11.1899 4.23335 11.3593L1.143 14.3161C0.966019 14.4854 0.966019 14.759 1.143 14.9283C1.22922 15.0108 1.34267 15.0542 1.46066 15.0542Z" fill="#5B88E8"/>
<path d="M2.03147 21.0601C2.14945 21.0601 2.2629 21.0167 2.35366 20.9342L5.44401 17.9774C5.621 17.8081 5.621 17.5345 5.44401 17.3652C5.26703 17.1959 4.98114 17.1959 4.80416 17.3652L1.71381 20.322C1.53683 20.4913 1.53683 20.7649 1.71381 20.9342C1.80003 21.0167 1.91348 21.0601 2.03147 21.0601Z" fill="#5B88E8"/>
<path d="M1.141 18.206C1.22628 18.2874 1.34298 18.3302 1.45968 18.3302C1.57638 18.3302 1.68859 18.2874 1.77836 18.206L5.44546 14.6911C5.62051 14.5241 5.62051 14.2544 5.44546 14.0875C5.27041 13.9205 4.98764 13.9205 4.81258 14.0875L1.14549 17.6024C0.965945 17.765 0.965945 18.039 1.141 18.206Z" fill="#5B88E8"/>
</g>
<defs>
<clipPath id="clip0_3388_19504">
<rect width="22" height="21.0435" fill="white" transform="translate(0 0.4375)"/>
</clipPath>
</defs>
</svg>
