<svg width="26" height="24" viewBox="0 0 26 24" fill="none" xmlns="http://www.w3.org/2000/svg">
<path d="M18.5388 0.916992H7.46112C3.4036 0.916992 0.0921397 4.17112 0.00188968 8.20733C0.000632125 8.26357 0 12.0342 0 12.0908C0 16.2049 3.34706 19.5503 7.46112 19.5503H12.3752L11.7413 22.718C11.6933 22.9583 11.7915 23.2027 11.9917 23.3437C12.0983 23.4189 12.2232 23.4568 12.3484 23.4568C12.4583 23.4568 12.5686 23.4283 12.6669 23.3694L19.0672 19.53C22.9687 19.2576 26 16.0231 26 12.0892C26 12.0349 25.9994 8.26649 25.9983 8.21249C25.9115 4.17314 22.5986 0.916992 18.5388 0.916992ZM18.8356 18.3019C18.6972 18.3084 18.5711 18.3601 18.4713 18.4422L13.2298 21.5875L13.7373 19.0503C13.7737 18.8684 13.7266 18.6806 13.609 18.5372C13.4915 18.3938 13.3158 18.3123 13.1303 18.3123H7.46112C4.02968 18.3123 1.23809 15.5223 1.23809 12.0908C1.23809 12.0343 1.23885 8.26356 1.24036 8.20733C1.33034 4.85386 4.08633 2.15515 7.46112 2.15515H18.5388C21.9159 2.15515 24.6733 4.85596 24.7598 8.21249C24.7611 8.2665 24.7618 12.035 24.7618 12.0893C24.7618 15.4188 22.1588 18.146 18.8356 18.3019Z" fill="white"/>
</svg>
