<svg width="26" height="24" viewBox="0 0 26 24" fill="none" xmlns="http://www.w3.org/2000/svg">
<path d="M18.5388 0.958496H7.46112C3.4036 0.958496 0.0921397 4.21263 0.00188968 8.24883C0.000632125 8.30507 0 12.0757 0 12.1323C0 16.2464 3.34706 19.5918 7.46112 19.5918H12.3752L11.7413 22.7595C11.6933 22.9998 11.7915 23.2442 11.9917 23.3852C12.0983 23.4604 12.2232 23.4983 12.3484 23.4983C12.4583 23.4983 12.5686 23.4698 12.6669 23.4109L19.0672 19.5715C22.9687 19.2991 26 16.0646 26 12.1307C26 12.0764 25.9994 8.30799 25.9983 8.25399C25.9115 4.21464 22.5986 0.958496 18.5388 0.958496ZM18.8356 18.3434C18.6972 18.3499 18.5711 18.4016 18.4713 18.4837L13.2298 21.629L13.7373 19.0918C13.7737 18.9099 13.7266 18.7221 13.609 18.5787C13.4915 18.4353 13.3158 18.3538 13.1303 18.3538H7.46112C4.02968 18.3538 1.23809 15.5638 1.23809 12.1324C1.23809 12.0758 1.23885 8.30506 1.24036 8.24883C1.33034 4.89537 4.08633 2.19665 7.46112 2.19665H18.5388C21.9159 2.19665 24.6733 4.89747 24.7598 8.25399C24.7611 8.308 24.7618 12.0765 24.7618 12.1308C24.7618 15.4603 22.1588 18.1875 18.8356 18.3434Z" fill="#13293D"/>
</svg>
