<svg width="40" height="40" viewBox="0 0 40 40" fill="none" xmlns="http://www.w3.org/2000/svg">
<path d="M4 6.88005C4 5.73131 4.92528 4.80005 6.06667 4.80005H33.9333C35.0747 4.80005 36 5.73131 36 6.88005C36 8.02879 35.0747 8.96005 33.9333 8.96005H6.06667C4.92528 8.96005 4 8.02879 4 6.88005Z" fill="white"/>
<path d="M4 20C4 18.8513 4.92528 17.9201 6.06667 17.9201H22.4667C23.608 17.9201 24.5333 18.8513 24.5333 20C24.5333 21.1488 23.608 22.08 22.4667 22.08H6.06667C4.92528 22.08 4 21.1488 4 20Z" fill="white"/>
<path d="M4 33.1201C4 31.9713 4.92528 31.0401 6.06667 31.0401H33.9333C35.0747 31.0401 36 31.9713 36 33.1201C36 34.2688 35.0747 35.2 33.9333 35.2H6.06667C4.92528 35.2 4 34.2688 4 33.1201Z" fill="white"/>
</svg>
