<svg width="50" height="51" viewBox="0 0 50 51" fill="none" xmlns="http://www.w3.org/2000/svg">
<path d="M41.6663 27.5834C41.6663 38 34.3747 43.2084 25.708 46.2292C25.2542 46.383 24.7612 46.3756 24.3122 46.2084C15.6247 43.2084 8.33301 38 8.33301 27.5834V13C8.33301 12.4475 8.5525 11.9176 8.9432 11.5269C9.3339 11.1362 9.86381 10.9167 10.4163 10.9167C14.583 10.9167 19.7913 8.41671 23.4163 5.25004C23.8577 4.87296 24.4192 4.66577 24.9997 4.66577C25.5802 4.66577 26.1416 4.87296 26.583 5.25004C30.2288 8.43754 35.4163 10.9167 39.583 10.9167C40.1355 10.9167 40.6654 11.1362 41.0561 11.5269C41.4468 11.9176 41.6663 12.4475 41.6663 13V27.5834Z" stroke="#ED3528" stroke-width="4" stroke-linecap="round" stroke-linejoin="round"/>
<path d="M25 17.1667V25.5001" stroke="#ED3528" stroke-width="4" stroke-linecap="round" stroke-linejoin="round"/>
<path d="M25 33.8333H25.0208" stroke="#ED3528" stroke-width="4" stroke-linecap="round" stroke-linejoin="round"/>
</svg>
