<svg width="49" height="41" viewBox="0 0 49 41" fill="none" xmlns="http://www.w3.org/2000/svg">
<rect width="49" height="41" rx="2" fill="#E9DEFD"/>
<g clip-path="url(#clip0_236_1946)">
<path d="M32.5 28.5C33.0304 28.5 33.5391 28.2893 33.9142 27.9142C34.2893 27.5391 34.5 27.0304 34.5 26.5V16.5C34.5 15.9696 34.2893 15.4609 33.9142 15.0858C33.5391 14.7107 33.0304 14.5 32.5 14.5H24.6C24.2655 14.5033 23.9355 14.4226 23.6403 14.2654C23.3451 14.1081 23.094 13.8794 22.91 13.6L22.1 12.4C21.9179 12.1235 21.67 11.8965 21.3785 11.7394C21.087 11.5823 20.7611 11.5001 20.43 11.5H16.5C15.9696 11.5 15.4609 11.7107 15.0858 12.0858C14.7107 12.4609 14.5 12.9696 14.5 13.5V26.5C14.5 27.0304 14.7107 27.5391 15.0858 27.9142C15.4609 28.2893 15.9696 28.5 16.5 28.5H32.5Z" fill="#B995F9" stroke="#B995F9" stroke-width="2" stroke-linecap="round" stroke-linejoin="round"/>
<path d="M14 19H36" stroke="#E9DEFD" stroke-width="2" stroke-linecap="round" stroke-linejoin="round"/>
</g>
<defs>
<clipPath id="clip0_236_1946">
<rect width="24" height="24" fill="white" transform="translate(12.5 8.5)"/>
</clipPath>
</defs>
</svg>
