<svg width="52" height="52" viewBox="0 0 52 52" fill="none" xmlns="http://www.w3.org/2000/svg">
<g filter="url(#filter0_d_181_1040)">
<rect x="4" y="2" width="44" height="44" rx="22" fill="white" shape-rendering="crispEdges"/>
<path d="M17.9961 14.3417C18.1883 14.3404 18.3805 14.3391 18.5786 14.3377C19.2124 14.3344 19.846 14.3366 20.4798 14.3391C20.9211 14.3386 21.3624 14.3379 21.8037 14.337C22.7279 14.3359 23.6521 14.3375 24.5764 14.341C25.7605 14.3453 26.9445 14.3428 28.1286 14.3383C29.0396 14.3356 29.9507 14.3365 30.8618 14.3384C31.2983 14.3389 31.7349 14.3383 32.1715 14.3365C32.7819 14.3346 33.3921 14.3375 34.0025 14.3417C34.1825 14.3402 34.3625 14.3387 34.548 14.3371C35.6017 14.3504 36.2466 14.4557 37.0618 15.1888C37.787 16.0392 37.9221 16.7427 37.9148 17.829C37.9167 17.9768 37.9186 18.1245 37.9206 18.2767C37.9258 18.7626 37.9255 19.2483 37.9246 19.7342C37.9261 20.0737 37.9277 20.4132 37.9295 20.7527C37.9323 21.4635 37.9322 22.1743 37.9302 22.8851C37.928 23.7935 37.9344 24.7016 37.9431 25.6099C37.9486 26.3109 37.9489 27.0119 37.9477 27.7129C37.9479 28.0477 37.9499 28.3824 37.9537 28.7172C37.9849 31.868 37.9849 31.868 37.0014 32.946C36.3829 33.4233 35.8807 33.6105 35.0997 33.6139C34.8497 33.6163 34.8497 33.6163 34.5947 33.6187C34.4133 33.6186 34.2319 33.6184 34.0451 33.6182C33.8529 33.6195 33.6607 33.6208 33.4628 33.622C32.827 33.6256 32.1912 33.6263 31.5555 33.6267C31.1136 33.628 30.6718 33.6292 30.23 33.6305C29.3035 33.6328 28.377 33.6335 27.4505 33.6332C26.2635 33.6332 25.0765 33.6383 23.8895 33.6448C22.9768 33.649 22.0641 33.6497 21.1515 33.6495C20.7138 33.65 20.2762 33.6516 19.8386 33.6545C19.2264 33.6582 18.6143 33.6571 18.0021 33.6549C17.8215 33.657 17.6408 33.6591 17.4547 33.6612C16.3987 33.6513 15.7535 33.5494 14.9368 32.8138C14.2084 31.9609 14.0778 31.257 14.0898 30.1675C14.0884 30.0192 14.0871 29.8709 14.0858 29.7181C14.0825 29.2304 14.0847 28.7429 14.0872 28.2552C14.0867 27.9148 14.086 27.5743 14.085 27.2339C14.0839 26.5215 14.0855 25.8092 14.089 25.0968C14.0933 24.1851 14.0908 23.2735 14.0863 22.3618C14.0836 21.6592 14.0845 20.9566 14.0864 20.254C14.0869 19.9179 14.0863 19.5818 14.0846 19.2457C14.0827 18.7754 14.0856 18.3053 14.0898 17.835C14.0882 17.697 14.0867 17.5591 14.0852 17.4169C14.1008 16.4585 14.3164 15.9151 14.9368 15.1888C15.9039 14.3192 16.7592 14.3313 17.9961 14.3417ZM15.6868 16.5013C15.5084 17.0365 15.4765 17.3646 15.478 17.9194C15.478 18.092 15.478 18.2646 15.4781 18.4425C15.479 18.6283 15.48 18.814 15.481 19.0054C15.4813 19.1961 15.4815 19.3867 15.4818 19.5831C15.4828 20.1926 15.4852 20.802 15.4876 21.4114C15.4885 21.8244 15.4894 22.2373 15.4901 22.6503C15.4922 23.6631 15.4954 24.6759 15.4993 25.6888C16.245 25.0618 16.9678 24.4303 17.6453 23.7288C17.7891 23.5818 17.9329 23.4349 18.0811 23.2835C18.3777 22.9785 18.6736 22.6728 18.9688 22.3665C19.1121 22.2205 19.2554 22.0745 19.4031 21.9241C19.5312 21.7918 19.6594 21.6596 19.7914 21.5233C20.4323 20.9811 20.9324 20.8103 21.7688 20.8255C22.9925 21.1475 23.6562 22.0254 24.4495 22.951C25.0345 23.6227 25.6318 24.2822 26.2337 24.9388C26.4066 25.131 26.4066 25.131 26.583 25.3272C26.748 25.5062 26.748 25.5062 26.9163 25.6888C27.0643 25.8512 27.0643 25.8512 27.2153 26.0169C27.5102 26.3109 27.5102 26.3109 28.0618 26.2513C28.5218 25.8035 28.5218 25.8035 28.9876 25.2434C30.1525 23.8834 30.1525 23.8834 31.2259 23.7434C32.6953 23.9198 33.7053 25.2947 34.6829 26.2981C34.9864 26.6081 35.2904 26.9177 35.5948 27.2268C35.728 27.3635 35.8613 27.5001 35.9986 27.6408C36.2624 27.9603 36.2624 27.9603 36.4993 27.9388C36.5124 26.537 36.5223 25.1353 36.5285 23.7336C36.5314 23.0826 36.5354 22.4317 36.5417 21.7808C36.549 21.0319 36.5518 20.2831 36.5542 19.5342C36.5571 19.3012 36.56 19.0681 36.563 18.828C36.5631 18.6104 36.5631 18.3927 36.5632 18.1685C36.5644 17.9774 36.5657 17.7863 36.5669 17.5894C36.4873 16.9704 36.3058 16.626 35.9368 16.1263C35.3628 15.7436 35.2474 15.7041 34.6011 15.7011C34.444 15.6995 34.2868 15.6979 34.1248 15.6963C33.953 15.6964 33.7812 15.6966 33.6041 15.6968C33.4227 15.6955 33.2412 15.6943 33.0543 15.693C32.4531 15.6894 31.852 15.6887 31.2508 15.6883C30.8334 15.6871 30.4161 15.6858 29.9988 15.6845C29.1234 15.6822 28.2479 15.6815 27.3725 15.6818C26.2504 15.6818 25.1283 15.6767 24.0062 15.6702C23.1441 15.6661 22.2819 15.6653 21.4198 15.6655C21.0061 15.6651 20.5924 15.6634 20.1787 15.6605C19.6 15.6568 19.0216 15.6579 18.443 15.6602C18.1864 15.657 18.1864 15.657 17.9246 15.6538C16.947 15.6635 16.3793 15.7377 15.6868 16.5013ZM20.5228 22.592C20.4102 22.6944 20.2977 22.7967 20.1817 22.9021C20.0625 23.0152 19.9434 23.1282 19.8206 23.2447C19.6968 23.362 19.573 23.4793 19.4455 23.6001C19.184 23.8504 18.9237 24.1018 18.6645 24.3544C18.4002 24.6091 18.1325 24.8603 17.8614 25.1075C15.9964 26.7593 15.9964 26.7593 15.2837 29.0516C15.3028 30.1126 15.3996 31.0018 16.0618 31.8763C16.6358 32.2589 16.7512 32.2984 17.3975 32.3014C17.6332 32.3038 17.6332 32.3038 17.8738 32.3062C18.0456 32.3061 18.2174 32.3059 18.3945 32.3057C18.5759 32.307 18.7574 32.3083 18.9443 32.3095C19.5455 32.3131 20.1467 32.3138 20.7478 32.3142C21.1652 32.3155 21.5825 32.3167 21.9998 32.318C22.8753 32.3203 23.7507 32.321 24.6261 32.3207C25.7482 32.3207 26.8703 32.3258 27.9924 32.3323C28.8545 32.3365 29.7167 32.3372 30.5788 32.337C30.9926 32.3375 31.4063 32.3391 31.82 32.342C32.3986 32.3457 32.977 32.3446 33.5556 32.3424C33.7267 32.3445 33.8978 32.3466 34.074 32.3487C34.8421 32.3411 35.2698 32.3129 35.9432 31.9156C36.4154 31.3848 36.5088 31.0773 36.5526 30.3847C36.4542 29.6773 35.9782 29.2514 35.4842 28.7818C35.3779 28.6752 35.2717 28.5687 35.1622 28.459C34.9375 28.2356 34.7108 28.0143 34.4821 27.795C34.1321 27.4583 33.7903 27.1147 33.4488 26.7694C33.2292 26.5531 33.0093 26.3371 32.7889 26.1216C32.6865 26.0187 32.5841 25.9158 32.4786 25.8098C31.8892 25.2461 31.8892 25.2461 31.1082 25.1382C30.5915 25.3535 30.2914 25.6158 29.9016 26.0169C29.7752 26.1435 29.6488 26.2702 29.5186 26.4007C29.1698 26.835 28.9907 27.2265 28.8118 27.7513C28.9223 27.8644 29.0327 27.9775 29.1465 28.094C29.3579 28.3188 29.3579 28.3188 29.5735 28.5481C29.7149 28.6961 29.8563 28.844 30.002 28.9964C30.3118 29.4388 30.3118 29.4388 30.2642 29.8694C30.218 29.9748 30.1719 30.0802 30.1243 30.1888C29.2434 30.1025 28.8756 29.7766 28.2727 29.1458C28.1079 28.9742 27.9431 28.8026 27.7732 28.6258C27.3031 28.1168 26.8445 27.6009 26.3941 27.0745C25.7304 26.321 25.0391 25.5931 24.3505 24.8624C23.5994 24.0631 22.8761 23.2475 22.1834 22.3965C21.564 21.8549 21.0503 22.1072 20.5228 22.592Z" fill="#836AB1"/>
<path d="M28.7781 17.8591C29.4761 18.4176 29.7056 18.7567 29.9265 19.6404C29.9903 20.3981 29.8458 20.9583 29.4673 21.6164C28.9296 22.2346 28.3021 22.4293 27.5007 22.4997C26.7252 22.4192 26.0992 22.2165 25.5342 21.6648C25.0249 20.9158 24.9766 20.2211 25.1226 19.3408C25.3379 18.6627 25.6739 18.3021 26.1882 17.8122C27.0928 17.5107 27.9112 17.4739 28.7781 17.8591ZM26.9148 19.1482C26.5066 19.4861 26.5066 19.4861 26.4812 20.074C26.5083 20.2557 26.5354 20.4375 26.5632 20.6247C27.0973 21.0685 27.0973 21.0685 27.7234 20.9294C27.8974 20.8908 28.0714 20.8521 28.2507 20.8122C28.3126 20.3791 28.3745 19.946 28.4382 19.4997C27.7382 18.9019 27.7382 18.9019 26.9148 19.1482Z" fill="#836AB1"/>
</g>
<defs>
<filter id="filter0_d_181_1040" x="0" y="0" width="52" height="52" filterUnits="userSpaceOnUse" color-interpolation-filters="sRGB">
<feFlood flood-opacity="0" result="BackgroundImageFix"/>
<feColorMatrix in="SourceAlpha" type="matrix" values="0 0 0 0 0 0 0 0 0 0 0 0 0 0 0 0 0 0 127 0" result="hardAlpha"/>
<feOffset dy="2"/>
<feGaussianBlur stdDeviation="2"/>
<feComposite in2="hardAlpha" operator="out"/>
<feColorMatrix type="matrix" values="0 0 0 0 0.572115 0 0 0 0 0.572115 0 0 0 0 0.572115 0 0 0 0.25 0"/>
<feBlend mode="normal" in2="BackgroundImageFix" result="effect1_dropShadow_181_1040"/>
<feBlend mode="normal" in="SourceGraphic" in2="effect1_dropShadow_181_1040" result="shape"/>
</filter>
</defs>
</svg>
