<svg width="117" height="108" viewBox="0 0 117 108" fill="none" xmlns="http://www.w3.org/2000/svg">
<path d="M60.81 29.2466V60.7047C60.81 74.1237 49.9308 85.0028 36.5119 85.0028H1.40039V55.5618H15.8132L49.4253 24.6823C50.6268 23.4224 52.3215 22.6384 54.202 22.6384C56.0261 22.6384 57.6793 23.3784 58.8735 24.5749C60.07 25.7716 60.81 27.4225 60.81 29.2466Z" fill="#FFC2E2"/>
<path d="M60.8094 29.2471V64.9496H47.5938V29.2471C47.5938 25.5977 50.5523 22.6394 54.2015 22.6394C57.8509 22.6392 60.8094 25.5977 60.8094 29.2471Z" fill="#FFC2E2"/>
<path d="M49.4247 21.9241V75.4827H36.209V21.9241C36.209 18.2747 39.1675 15.3164 42.8167 15.3164C46.4664 15.3164 49.4247 18.2747 49.4247 21.9241Z" fill="#FFC2E2"/>
<path d="M49.4242 50.1018V21.9237C49.4242 20.0996 48.6863 18.4473 47.4877 17.251C46.2938 16.0571 44.6415 15.3169 42.8173 15.3169C40.5922 15.3169 38.6259 16.4146 37.4297 18.099V18.1012" stroke="#13293D" stroke-width="1.43228" stroke-miterlimit="10" stroke-linecap="round" stroke-linejoin="round"/>
<path d="M37.4305 15.5281V69.0867H24.2148V15.5281C24.2148 11.8787 27.1734 8.92041 30.8226 8.92041C34.472 8.92041 37.4305 11.8787 37.4305 15.5281Z" fill="#FFC2E2"/>
<path d="M24.2148 18.9765V15.5276C24.2148 11.8793 27.1757 8.91846 30.824 8.91846C32.6504 8.91846 34.3004 9.65866 35.4966 10.8549C36.6906 12.0511 37.4308 13.7034 37.4308 15.5276V18.0988V48.6923" stroke="#13293D" stroke-width="1.43228" stroke-miterlimit="10" stroke-linecap="round" stroke-linejoin="round"/>
<path d="M25.9772 23.4691V54.9224H12.7617V23.4691C12.7617 19.8196 15.7202 16.8613 19.3695 16.8613C23.0189 16.8613 25.9772 19.8196 25.9772 23.4691Z" fill="#FFC2E2"/>
<path d="M12.7598 54.921V49.1002V23.4681C12.7598 19.8198 15.7183 16.8613 19.3689 16.8613C21.193 16.8613 22.8453 17.6015 24.0415 18.7955C25.2355 19.9917 25.9757 21.644 25.9757 23.4681V43.3963" stroke="#13293D" stroke-width="1.43228" stroke-miterlimit="10" stroke-linecap="round" stroke-linejoin="round"/>
<path d="M28.4407 49.1012V54.4912C28.4407 57.1066 29.4348 59.6387 31.2677 61.5045C33.7161 63.9971 35.227 67.4135 35.227 71.1837C35.227 78.8158 29.04 85.0031 21.4076 85.0031C16.6325 85.0031 12.7617 81.1322 12.7617 76.3571V57.3644V49.1012C12.7617 44.7716 16.2716 41.2617 20.6012 41.2617C24.9308 41.2617 28.4407 44.7716 28.4407 49.1012Z" fill="#FFC2E2"/>
<path d="M12.7617 69.0869V57.3644V49.1012C12.7617 44.7716 16.2716 41.2617 20.6012 41.2617C24.9308 41.2617 28.4407 44.7716 28.4407 49.1012V54.4912C28.4407 57.1066 29.4348 59.6387 31.2677 61.5045C33.7161 63.9971 35.227 67.4135 35.227 71.1838" stroke="#13293D" stroke-width="1.43228" stroke-miterlimit="10" stroke-linecap="round" stroke-linejoin="round"/>
<path d="M1.40039 55.5618H12.7608" stroke="#13293D" stroke-width="1.43228" stroke-miterlimit="10" stroke-linecap="round" stroke-linejoin="round"/>
<path d="M15.1035 85.0036H21.4101H36.5121C44.4801 85.0036 51.5522 81.1674 55.9819 75.2412" stroke="#13293D" stroke-width="1.43228" stroke-miterlimit="10" stroke-linecap="round" stroke-linejoin="round"/>
<path d="M18.4732 85.0037H1.40039" stroke="#13293D" stroke-width="1.43228" stroke-miterlimit="10" stroke-linecap="round" stroke-linejoin="round"/>
<path d="M49.4258 24.6831C50.6289 23.4227 52.3224 22.6389 54.2039 22.6389C56.028 22.6389 57.6803 23.3791 58.8742 24.5754C60.0728 25.7716 60.8107 27.4216 60.8107 29.248V35.2682" stroke="#13293D" stroke-width="1.43228" stroke-miterlimit="10" stroke-linecap="round" stroke-linejoin="round"/>
<path d="M28.4395 49.1009C28.4395 49.1009 43.9564 47.1359 54.2005 51.7189" stroke="#13293D" stroke-width="1.43228" stroke-miterlimit="10" stroke-linecap="round" stroke-linejoin="round"/>
<path d="M111.395 75.4536H98.5625V50.6926H104.806C108.445 50.6926 111.395 53.6427 111.395 57.2818V75.4536Z" fill="#F3DFA2"/>
<path d="M103.932 50.6924H104.806C108.445 50.6924 111.394 53.6424 111.394 57.2809V67.9746" stroke="#13293D" stroke-width="1.43228" stroke-miterlimit="10" stroke-linecap="round" stroke-linejoin="round"/>
<path d="M90.7188 35.8817V67.335L103.934 74.1036V35.8817C103.934 32.2322 100.976 29.2739 97.3267 29.2739C93.6773 29.2739 90.7188 32.2322 90.7188 35.8817Z" fill="#F3DFA2"/>
<path d="M55.8848 41.6595V73.1176C55.8848 86.5366 66.7639 97.4157 80.1829 97.4157H115.294V67.9747H100.881L67.2694 37.0954C66.0679 35.8353 64.3733 35.0515 62.4927 35.0515C60.6686 35.0515 59.0154 35.7915 57.8212 36.988C56.6247 38.1844 55.8848 39.8353 55.8848 41.6595Z" fill="#F3DFA2"/>
<path d="M60.6953 41.6595V73.1176C60.6953 86.5366 71.5744 97.4157 84.9934 97.4157H115.294V67.9747H105.692L72.08 37.0954C70.8785 35.8353 69.1838 35.0515 67.3033 35.0515C65.4791 35.0515 63.8259 35.7915 62.6318 36.988C61.4353 38.1844 60.6953 39.8353 60.6953 41.6595Z" fill="#F3DFA2"/>
<path d="M55.8848 41.6602V77.3627H69.1005V41.6602C69.1005 38.0108 66.1419 35.0525 62.4927 35.0525C58.8433 35.0523 55.8848 38.0108 55.8848 41.6602Z" fill="#F3DFA2"/>
<path d="M67.2695 34.337V80.1179L80.4852 87.8955V34.337C80.4852 30.6875 77.5267 27.7292 73.8775 27.7292C70.2278 27.7292 67.2695 30.6875 67.2695 34.337Z" fill="#F3DFA2"/>
<path d="M67.2695 62.5154V34.335C67.2695 32.5108 68.0097 30.8609 69.206 29.6646C70.3999 28.4707 72.0545 27.7305 73.8786 27.7305C76.1015 27.7305 78.0678 28.8259 79.264 30.5079" stroke="#13293D" stroke-width="1.43228" stroke-miterlimit="10" stroke-linecap="round" stroke-linejoin="round"/>
<path d="M79.2637 27.9412V81.4998H92.4794V27.9412C92.4794 24.2918 89.5209 21.3335 85.8716 21.3335C82.2222 21.3335 79.2637 24.2918 79.2637 27.9412Z" fill="#F3DFA2"/>
<path d="M92.4801 62.5143V27.9402C92.4801 24.2919 89.5204 21.332 85.8719 21.332C84.0452 21.332 82.3945 22.072 81.1978 23.2685C80.0036 24.4652 79.2637 26.1158 79.2637 27.94V30.5115V61.1052" stroke="#13293D" stroke-width="1.43228" stroke-miterlimit="10" stroke-linecap="round" stroke-linejoin="round"/>
<path d="M55.8867 58.5672V41.6594C55.8867 39.8353 56.6246 38.1853 57.8232 36.9867C59.0171 35.7905 60.6694 35.0503 62.4935 35.0503C64.375 35.0503 66.0685 35.834 67.2716 37.0944" stroke="#13293D" stroke-width="1.43228" stroke-miterlimit="10" stroke-linecap="round" stroke-linejoin="round"/>
<path d="M55.8867 55.7185V73.1167C55.8867 86.5366 66.7652 97.415 80.1851 97.415H95.287H115.295" stroke="#13293D" stroke-width="1.43228" stroke-miterlimit="10" stroke-linecap="round" stroke-linejoin="round"/>
<path d="M103.934 44.1548V67.3348L103.936 67.9742H115.296" stroke="#13293D" stroke-width="1.43228" stroke-miterlimit="10" stroke-linecap="round" stroke-linejoin="round"/>
<path d="M92.4805 31.3907C92.5332 31.3288 92.5928 31.2692 92.6523 31.2096C93.8486 30.0134 95.4986 29.2732 97.325 29.2732C100.973 29.2732 103.932 32.234 103.932 35.8823V45.7501" stroke="#13293D" stroke-width="1.43228" stroke-miterlimit="10" stroke-linecap="round" stroke-linejoin="round"/>
<path d="M103.934 67.9744H98.5625" stroke="#13293D" stroke-width="1.43228" stroke-miterlimit="10" stroke-linecap="round" stroke-linejoin="round"/>
<path d="M43.8965 105.863L46.7473 98.4915" stroke="#13293D" stroke-width="1.43228" stroke-miterlimit="10" stroke-linecap="round" stroke-linejoin="round"/>
<path d="M58.2854 106.8L57.1191 98.9827" stroke="#13293D" stroke-width="1.43228" stroke-miterlimit="10" stroke-linecap="round" stroke-linejoin="round"/>
<path d="M38.7413 91.876L32.6191 96.8747" stroke="#13293D" stroke-width="1.43228" stroke-miterlimit="10" stroke-linecap="round" stroke-linejoin="round"/>
<path d="M70.4385 2.13672L67.5879 9.50849" stroke="#13293D" stroke-width="1.43228" stroke-miterlimit="10" stroke-linecap="round" stroke-linejoin="round"/>
<path d="M56.0508 1.19995L57.2168 9.01722" stroke="#13293D" stroke-width="1.43228" stroke-miterlimit="10" stroke-linecap="round" stroke-linejoin="round"/>
<path d="M75.5938 16.1238L81.7159 11.125" stroke="#13293D" stroke-width="1.43228" stroke-miterlimit="10" stroke-linecap="round" stroke-linejoin="round"/>
</svg>
