<svg width="80" height="48" viewBox="0 0 80 48" fill="none" xmlns="http://www.w3.org/2000/svg">
<rect width="80" height="48" fill="#E6E6E6"/>
<g clip-path="url(#clip0_361_5153)">
<rect x="-9.5" y="-3.5" width="104" height="55" rx="7.5" fill="white"/>
<rect x="-9.5" y="-3.5" width="104" height="55" rx="7.5" stroke="#D8D9DB"/>
<path d="M33.2383 26.4656L32.4156 29.537L29.4084 29.6006C28.5098 27.9338 28 26.0266 28 24C28 22.0403 28.4766 20.1922 29.3214 18.5649H29.3221L31.9993 19.0558L33.172 21.7169C32.9266 22.4325 32.7928 23.2007 32.7928 24C32.7929 24.8675 32.95 25.6987 33.2383 26.4656Z" fill="#FBBB00"/>
<path d="M51.43 21.7922C51.5657 22.5071 51.6365 23.2454 51.6365 24C51.6365 24.8461 51.5475 25.6714 51.3781 26.4675C50.8028 29.1766 49.2995 31.5422 47.217 33.2162L47.2164 33.2156L43.8443 33.0435L43.3671 30.0643C44.7489 29.2539 45.8288 27.9857 46.3976 26.4675H40.0781V21.7922H46.4898H51.43Z" fill="#518EF8"/>
<path d="M47.216 33.2156L47.2166 33.2163C45.1913 34.8442 42.6186 35.8182 39.8179 35.8182C35.3173 35.8182 31.4043 33.3026 29.4082 29.6007L33.2381 26.4656C34.2361 29.1293 36.8056 31.0254 39.8179 31.0254C41.1127 31.0254 42.3258 30.6754 43.3666 30.0643L47.216 33.2156Z" fill="#28B446"/>
<path d="M47.3625 14.9026L43.534 18.037C42.4567 17.3636 41.1833 16.9747 39.819 16.9747C36.7385 16.9747 34.121 18.9578 33.1729 21.7169L29.3229 18.5649H29.3223C31.2892 14.7727 35.2515 12.1818 39.819 12.1818C42.6866 12.1818 45.3158 13.2033 47.3625 14.9026Z" fill="#ED3528"/>
</g>
<defs>
<clipPath id="clip0_361_5153">
<rect width="26" height="26" fill="white" transform="translate(27 11)"/>
</clipPath>
</defs>
</svg>
