<svg width="33" height="34" viewBox="0 0 33 34" fill="none" xmlns="http://www.w3.org/2000/svg">
<path d="M11.1049 19.6897L10.3678 22.4415L7.67363 22.4985C6.86847 21.0051 6.41177 19.2965 6.41177 17.4808C6.41177 15.725 6.83878 14.0692 7.59567 12.6113H7.59625L9.99481 13.0511L11.0455 15.4352C10.8256 16.0764 10.7058 16.7646 10.7058 17.4808C10.7058 18.258 10.8466 19.0027 11.1049 19.6897Z" fill="#FBBB00"/>
<path d="M27.4033 15.5027C27.5249 16.1432 27.5883 16.8047 27.5883 17.4807C27.5883 18.2388 27.5086 18.9782 27.3568 19.6914C26.8413 22.1186 25.4945 24.238 23.6288 25.7378L23.6282 25.7372L20.6071 25.5831L20.1795 22.9139C21.4175 22.1878 22.385 21.0516 22.8947 19.6914H17.2328V15.5027H22.9773H27.4033Z" fill="#518EF8"/>
<path d="M23.6281 25.7372L23.6287 25.7378C21.8142 27.1963 19.5092 28.0689 17 28.0689C12.9678 28.0689 9.46202 25.8152 7.67365 22.4985L11.1049 19.6897C11.9991 22.0761 14.3012 23.7749 17 23.7749C18.16 23.7749 19.2468 23.4613 20.1794 22.9139L23.6281 25.7372Z" fill="#28B446"/>
<path d="M23.7579 9.33006L20.3278 12.1383C19.3626 11.535 18.2217 11.1865 16.9995 11.1865C14.2395 11.1865 11.8944 12.9632 11.045 15.4352L7.5957 12.6113H7.59512C9.35732 9.21372 12.9073 6.89246 16.9995 6.89246C19.5686 6.89246 21.9241 7.80759 23.7579 9.33006Z" fill="#F14336"/>
</svg>
