<svg width="26" height="22" viewBox="0 0 26 22" fill="none" xmlns="http://www.w3.org/2000/svg">
<path d="M13 21.9168C12.3772 21.9173 11.7674 21.7389 11.2431 21.4027C9.75565 20.4466 6.89506 18.4844 4.47533 16.0885C1.50586 13.1458 0 10.3744 0 7.84941C0 6.09486 0.51881 4.48726 1.5005 3.20094C2.43143 1.97785 3.74645 1.10316 5.23433 0.717409C6.72221 0.331655 8.29656 0.457223 9.70448 1.07394C10.9646 1.61774 12.0885 2.53458 13 3.75129C13.9115 2.53161 15.0354 1.61476 16.2955 1.07394C17.7034 0.457223 19.2778 0.331655 20.7657 0.717409C22.2535 1.10316 23.5686 1.97785 24.4995 3.20094C25.4812 4.48726 26 6.09486 26 7.84941C26 10.3744 24.4941 13.1446 21.5247 16.0861C19.1049 18.482 16.2455 20.4442 14.7569 21.4003C14.2329 21.7374 13.623 21.9166 13 21.9168Z" fill="#DA1B2B"/>
</svg>
