<svg width="26" height="22" viewBox="0 0 26 22" fill="none" xmlns="http://www.w3.org/2000/svg">
<path d="M13 21.9583C12.3772 21.9588 11.7674 21.7804 11.2431 21.4442C9.75565 20.4881 6.89506 18.5259 4.47533 16.13C1.50586 13.1873 0 10.4159 0 7.89091C0 6.13636 0.51881 4.52876 1.5005 3.24245C2.43143 2.01935 3.74645 1.14467 5.23433 0.758913C6.72221 0.373159 8.29656 0.498726 9.70448 1.11544C10.9646 1.65924 12.0885 2.57608 13 3.79279C13.9115 2.57311 15.0354 1.65627 16.2955 1.11544C17.7034 0.498726 19.2778 0.373159 20.7657 0.758913C22.2535 1.14467 23.5686 2.01935 24.4995 3.24245C25.4812 4.52876 26 6.13636 26 7.89091C26 10.4159 24.4941 13.1861 21.5247 16.1276C19.1049 18.5235 16.2455 20.4857 14.7569 21.4419C14.2329 21.7789 13.623 21.9581 13 21.9583ZM6.94087 2.0305C6.47029 2.03008 6.00173 2.0921 5.54746 2.21494C4.40729 2.52796 3.40106 3.20589 2.6827 4.14501C1.90092 5.16954 1.48741 6.46538 1.48741 7.89329C1.48741 10.0066 2.84453 12.4222 5.52188 15.0733C7.84224 17.3735 10.607 19.2678 12.0469 20.19C12.3312 20.3717 12.6615 20.4682 12.9988 20.4682C13.3362 20.4682 13.6665 20.3717 13.9508 20.19C15.3906 19.2655 18.153 17.3711 20.4757 15.0733C23.1531 12.4222 24.5102 10.0066 24.5102 7.89329C24.5102 6.46538 24.0967 5.17192 23.3149 4.14501C22.5966 3.20589 21.5903 2.52796 20.4502 2.21494C18.4172 1.66281 15.5607 2.23993 13.639 5.51581C13.5735 5.62776 13.4798 5.72061 13.3673 5.78514C13.2548 5.84966 13.1273 5.88361 12.9976 5.88361C12.8679 5.88361 12.7405 5.84966 12.6279 5.78514C12.5154 5.72061 12.4218 5.62776 12.3562 5.51581C10.8462 2.93723 8.75432 2.0305 6.94087 2.0305Z" fill="white"/>
</svg>
