<svg width="26" height="26" viewBox="0 0 26 26" fill="none" xmlns="http://www.w3.org/2000/svg">
<path d="M24.8408 26H16.3949C15.7877 26 15.2909 25.5019 15.2909 24.893V19.6349C15.2909 18.3065 14.242 17.2549 12.9172 17.2549C11.5924 17.2549 10.5435 18.3065 10.5435 19.6349V24.893C10.5435 25.5019 10.0467 26 9.43949 26H1.10403C0.496815 26 0 25.5019 0 24.893V10.7238C0 9.72752 0.496815 8.78659 1.26964 8.2331L12.3652 0.207557C12.7516 -0.0691857 13.2484 -0.0691857 13.6348 0.207557L24.7304 8.2331C25.5032 8.78659 26 9.72752 26 10.7238V24.9484C25.9448 25.5019 25.448 26 24.8408 26ZM17.4989 23.8414H23.7919V10.7238C23.7919 10.447 23.6263 10.1703 23.4055 10.0043L12.9724 2.4215L2.53928 9.94891C2.31847 10.115 2.15287 10.3917 2.15287 10.6684V23.7861H8.44586V19.6349C8.44586 17.1442 10.4883 15.0963 12.9724 15.0963C15.4565 15.0963 17.4989 17.1442 17.4989 19.6349V23.8414Z" fill="white"/>
</svg>
