<svg width="115" height="118" viewBox="0 0 115 118" fill="none" xmlns="http://www.w3.org/2000/svg">
<path d="M75.467 116.58H6.8825C3.52362 116.58 0.800781 113.857 0.800781 110.498V67.5656C0.800781 64.2067 3.52362 61.4839 6.8825 61.4839H41.1747H75.467C78.8258 61.4839 81.5487 64.2067 81.5487 67.5656V110.498C81.5487 113.857 78.8258 116.58 75.467 116.58Z" fill="#F3DFA2"/>
<path d="M0.799805 79.0981V67.5666C0.799805 64.2079 3.52334 61.4844 6.88199 61.4844H32.6501" stroke="#13293D" stroke-width="1.4789" stroke-miterlimit="10" stroke-linecap="round" stroke-linejoin="round"/>
<path d="M81.5486 78.3676V110.498C81.5486 113.857 78.8251 116.578 75.4665 116.578H6.88199C3.52334 116.578 0.799805 113.857 0.799805 110.498V76.981" stroke="#13293D" stroke-width="1.4789" stroke-miterlimit="10" stroke-linecap="round" stroke-linejoin="round"/>
<path d="M0.800781 67.5659L38.0143 94.1333C39.9057 95.4823 42.4438 95.4823 44.3352 94.1333L66.42 78.3671" stroke="#13293D" stroke-width="1.4789" stroke-miterlimit="10" stroke-linecap="round" stroke-linejoin="round"/>
<path d="M30.8686 89.0322L0.800781 110.498" stroke="#13293D" stroke-width="1.4789" stroke-miterlimit="10" stroke-linecap="round" stroke-linejoin="round"/>
<path d="M81.5473 110.498L51.4795 89.0322" stroke="#13293D" stroke-width="1.4789" stroke-miterlimit="10" stroke-linecap="round" stroke-linejoin="round"/>
<path d="M107.374 78.3686H38.6763C35.3489 78.3686 32.6514 75.6712 32.6514 72.3437V26.7903C32.6514 24.6166 33.8221 22.6116 35.7152 21.5433L70.0642 2.15912C71.9021 1.12209 74.1486 1.12209 75.9862 2.15912L110.335 21.5433C112.228 22.6116 113.399 24.6166 113.399 26.7903V72.3437C113.399 75.671 110.702 78.3686 107.374 78.3686Z" fill="#FFC2E2"/>
<path d="M113.399 26.7903V29.4118L104.419 35.8232L83.3314 50.8777L76.1856 45.776C74.2941 44.427 71.756 44.427 69.8669 45.776L62.7211 50.8777L41.6307 35.8232L32.6514 29.4118V26.7903C32.6514 24.6184 33.8219 22.6111 35.7156 21.5449L41.6309 18.2071L59.3325 8.21484L70.0642 2.15815C71.9023 1.12437 74.1507 1.12437 75.9864 2.15815L86.7181 8.21484L104.42 18.2071L110.335 21.5449C112.229 22.6111 113.399 24.6184 113.399 26.7903Z" fill="#F3DFA2"/>
<path d="M104.42 18.2046L110.335 21.5424C112.229 22.6109 113.399 24.6159 113.399 26.7901V72.3432C113.399 75.6717 110.701 78.3674 107.375 78.3674H38.6756C35.3494 78.3674 32.6514 75.6717 32.6514 72.3432V26.7901C32.6514 24.6159 33.8219 22.6109 35.7156 21.5424L41.6309 18.2046" stroke="#13293D" stroke-width="1.4789" stroke-miterlimit="10" stroke-linecap="round" stroke-linejoin="round"/>
<path d="M59.3311 8.21462L70.0627 2.15794C71.9008 1.12183 74.1469 1.12183 75.985 2.15794L86.7166 8.21462" stroke="#13293D" stroke-width="1.4789" stroke-miterlimit="10" stroke-linecap="round" stroke-linejoin="round"/>
<path d="M45.1807 8.26367H100.87C102.801 8.26375 104.369 9.83232 104.369 11.7637V35.7969L83.3301 50.8154L76.2139 45.7354H76.2129C74.3046 44.3746 71.7439 44.3745 69.8379 45.7354L62.7197 50.8154L41.6787 35.7969V11.7637C41.6787 9.83237 43.247 8.26381 45.1807 8.26367Z" fill="white" stroke="#13293D" stroke-width="0.098593"/>
<path d="M104.419 35.823V11.7636C104.419 9.80493 102.829 8.21484 100.87 8.21484H45.1809C43.22 8.21484 41.6299 9.80493 41.6299 11.7636V35.823" stroke="#13293D" stroke-width="1.4789" stroke-miterlimit="10" stroke-linecap="round" stroke-linejoin="round"/>
<path d="M113.399 29.4116L83.3311 50.8775" stroke="#13293D" stroke-width="1.4789" stroke-miterlimit="10" stroke-linecap="round" stroke-linejoin="round"/>
<path d="M62.7204 50.8775L32.6523 29.4116" stroke="#13293D" stroke-width="1.4789" stroke-miterlimit="10" stroke-linecap="round" stroke-linejoin="round"/>
<path d="M32.6514 72.3437L69.8653 45.7759C71.7567 44.4269 74.2948 44.4269 76.1839 45.7759L97.9998 61.3808" stroke="#13293D" stroke-width="1.4789" stroke-miterlimit="10" stroke-linecap="round" stroke-linejoin="round"/>
<path d="M113.4 72.3439L97.3438 60.8818" stroke="#13293D" stroke-width="1.4789" stroke-miterlimit="10" stroke-linecap="round" stroke-linejoin="round"/>
<path d="M77.4949 18.2041H51.8682" stroke="#13293D" stroke-width="1.4789" stroke-miterlimit="10" stroke-linecap="round" stroke-linejoin="round"/>
<path d="M51.8672 26.1299H94.1824" stroke="#13293D" stroke-width="1.4789" stroke-miterlimit="10" stroke-linecap="round" stroke-linejoin="round"/>
<path d="M51.8672 34.0552H94.1824" stroke="#13293D" stroke-width="1.4789" stroke-miterlimit="10" stroke-linecap="round" stroke-linejoin="round"/>
</svg>
