<svg width="50" height="51" viewBox="0 0 50 51" fill="none" xmlns="http://www.w3.org/2000/svg">
<path d="M16.4587 42.1667C20.4349 44.2064 25.0088 44.7589 29.3563 43.7245C33.7038 42.6902 37.539 40.1372 40.1706 36.5254C42.8023 32.9136 44.0574 28.4807 43.7099 24.0254C43.3623 19.57 41.4349 15.3854 38.2749 12.2254C35.115 9.06547 30.9303 7.13804 26.475 6.79047C22.0197 6.44289 17.5867 7.69803 13.9749 10.3297C10.3632 12.9614 7.8101 16.7965 6.77579 21.144C5.74148 25.4915 6.29396 30.0655 8.33366 34.0417L4.16699 46.3333L16.4587 42.1667Z" stroke="#836AB1" stroke-width="4" stroke-linecap="round" stroke-linejoin="round"/>
<path d="M16.667 25.5H16.6878" stroke="#836AB1" stroke-width="4" stroke-linecap="round" stroke-linejoin="round"/>
<path d="M25 25.5H25.0208" stroke="#836AB1" stroke-width="4" stroke-linecap="round" stroke-linejoin="round"/>
<path d="M33.333 25.5H33.3538" stroke="#836AB1" stroke-width="4" stroke-linecap="round" stroke-linejoin="round"/>
</svg>
