<svg width="20" height="26" viewBox="0 0 20 26" fill="none" xmlns="http://www.w3.org/2000/svg">
<path d="M14.4107 13.6697C16.2298 12.2861 17.4158 10.078 17.4158 7.58599C17.4158 3.40285 14.0888 0 9.99894 0C5.90904 0 2.58204 3.40285 2.58204 7.58599C2.58204 10.078 3.76807 12.2861 5.58721 13.6697C2.34462 14.7845 0 17.9165 0 21.6032V22.6608C0 23.9149 0.870529 24.9963 2.07028 25.2316C4.67764 25.7421 7.34515 26 10 26C12.6549 26 15.3224 25.741 17.9308 25.2316C19.1295 24.9963 20 23.9149 20 22.6608V21.6032C19.9979 17.9165 17.6522 14.7845 14.4107 13.6697ZM4.48032 7.58599C4.48032 4.47453 6.95579 1.94263 9.99789 1.94263C13.04 1.94263 15.5155 4.47453 15.5155 7.58599C15.5155 10.6974 13.04 13.2293 9.99789 13.2293C6.95579 13.2293 4.48032 10.6985 4.48032 7.58599ZM18.0975 22.6608C18.0975 22.9846 17.8759 23.2641 17.571 23.3235C12.5915 24.297 7.40319 24.297 2.42587 23.3235C2.11987 23.263 1.89828 22.9846 1.89828 22.6608V21.6032C1.89828 18.0568 4.71879 15.172 8.18508 15.172H11.8107C15.277 15.172 18.0975 18.0568 18.0975 21.6032V22.6608Z" fill="white"/>
</svg>
