<svg width="40" height="40" viewBox="0 0 40 40" fill="none" xmlns="http://www.w3.org/2000/svg">
<path d="M23.9096 33.1505L23.3278 32.8899C25.3463 28.0599 25.0779 24.2173 22.4983 21.772C22.1282 21.4222 22.0051 20.9397 22.1831 20.5422C22.3607 20.1457 22.8021 19.9174 23.3085 19.9601C26.8516 20.2571 29.8967 17.8973 32.157 13.1769L32.7388 13.4374C33.6623 13.851 34.7439 13.4506 35.1495 12.5449C35.5552 11.6392 35.1338 10.5655 34.2103 10.1519L18.5773 3.1501C17.6538 2.73649 16.5722 3.13695 16.1666 4.04266C15.7609 4.94836 16.1823 6.022 17.1058 6.43561L17.6875 6.69617C15.6695 11.5251 15.9375 15.3688 18.5181 17.8146C18.8872 18.164 19.0103 18.6464 18.8322 19.044C18.6552 19.4393 18.2132 19.6687 17.7068 19.626C14.1638 19.329 11.1192 21.6877 8.85831 26.4092L8.27654 26.1487C7.35308 25.7351 6.27146 26.1355 5.86581 27.0412C5.46016 27.9469 5.88154 29.0206 6.805 29.4342L22.438 36.436C23.3615 36.8496 24.4431 36.4492 24.8488 35.5434C25.2544 34.6377 24.833 33.5641 23.9096 33.1505ZM17.6211 20.8262C18.6481 20.9128 19.5619 20.4082 19.9499 19.5419C20.3374 18.6767 20.1038 17.6596 19.3565 16.9515C17.1455 14.8567 16.9748 11.568 18.8019 7.1953L31.0426 12.6777C28.9966 16.9525 26.4293 19.0148 23.3954 18.7604C22.3684 18.6739 21.4535 19.1779 21.0655 20.0442C20.6785 20.9083 20.912 21.9254 21.66 22.6352C23.8698 24.7294 24.0405 28.0181 22.2134 32.3908L9.97272 26.9084C12.0187 22.6336 14.5865 20.5702 17.6211 20.8262Z" fill="#986EA8"/>
</svg>
