<svg width="19" height="12" viewBox="0 0 19 12" fill="none" xmlns="http://www.w3.org/2000/svg">
<path d="M15.2816 3.85767L17.54 1.59923C17.6999 1.43936 17.9405 1.39102 18.1503 1.47548C18.3591 1.55993 18.4993 1.76283 18.5014 1.9891L18.6342 10.8858C18.6369 11.0382 18.5774 11.1848 18.4696 11.2927C18.3617 11.4005 18.2151 11.46 18.0627 11.4573L9.16599 11.3245C8.93919 11.3208 8.73682 11.1811 8.65237 10.9734C8.56792 10.7636 8.61626 10.523 8.77613 10.3631L11.0335 8.10578L10.2803 7.35261C7.81794 4.89022 4.20933 3.95859 0.865767 4.91943L0.83443 4.92846C0.633656 4.98689 0.421198 4.92952 0.277788 4.78611C0.244857 4.75318 0.215644 4.71653 0.191211 4.6751C0.0600174 4.45361 0.0956042 4.17158 0.277788 3.98939C4.40692 -0.139739 11.0978 -0.183824 15.2816 3.85767Z" fill="#5B88E8"/>
</svg>
