<svg width="27" height="26" viewBox="0 0 27 26" fill="none" xmlns="http://www.w3.org/2000/svg">
<path d="M12.1699 0C5.73874 0 0.5 5.23695 0.5 11.6659C0.5 18.0948 5.73874 23.342 12.1699 23.342C14.9168 23.342 17.4431 22.3797 19.4398 20.7819L24.3008 25.6386C24.5461 25.8737 24.8737 26.0034 25.2135 25.9999C25.5533 25.9965 25.8782 25.8601 26.1187 25.6201C26.3591 25.3801 26.496 25.0555 26.4999 24.7158C26.5039 24.3762 26.3746 24.0484 26.1398 23.8029L21.2788 18.9436C22.8785 16.9445 23.8423 14.4151 23.8423 11.6659C23.8423 5.23695 18.601 0 12.1699 0ZM12.1699 2.59302C17.1992 2.59302 21.2459 6.63834 21.2459 11.6659C21.2459 16.6935 17.1992 20.749 12.1699 20.749C7.14057 20.749 3.09387 16.6935 3.09387 11.6659C3.09387 6.63834 7.14057 2.59302 12.1699 2.59302Z" fill="white"/>
</svg>
