<svg width="52" height="52" viewBox="0 0 52 52" fill="none" xmlns="http://www.w3.org/2000/svg">
<g filter="url(#filter0_d_181_1044)">
<rect x="4" y="2" width="44" height="44" rx="22" fill="white" shape-rendering="crispEdges"/>
<path d="M17.1123 13.8926C17.9764 14.1222 18.7285 14.4989 19.5247 14.9007C19.7874 15.0311 19.7874 15.0311 20.0554 15.164C20.6326 15.451 21.2087 15.7401 21.7848 16.0294C22.1858 16.2297 22.5868 16.4299 22.9879 16.6299C23.8275 17.0492 24.6666 17.4695 25.5053 17.8906C26.5816 18.4309 27.6593 18.9685 28.7373 19.5053C29.5653 19.9179 30.3925 20.332 31.2195 20.7465C31.6167 20.9453 32.0141 21.1437 32.4118 21.3417C32.9664 21.618 33.5201 21.8963 34.0735 22.1751C34.3213 22.2979 34.3213 22.2979 34.5741 22.4231C34.7245 22.4993 34.8748 22.5756 35.0297 22.6541C35.1606 22.7197 35.2916 22.7853 35.4265 22.8529C35.7506 23.0622 35.7506 23.0622 36.1256 23.6247C36.1533 24.1665 36.1533 24.1665 35.9381 24.7497C35.46 25.1362 34.9234 25.3816 34.3695 25.6431C34.2093 25.7228 34.0491 25.8026 33.8841 25.8848C33.5483 26.0518 33.2117 26.2172 32.8744 26.3811C32.2612 26.6805 31.6546 26.992 31.048 27.3046C29.4621 28.1208 27.8673 28.9201 26.274 29.722C25.4063 30.1588 24.5392 30.5967 23.6734 31.0375C22.8257 31.469 21.9766 31.8976 21.1263 32.3241C20.8049 32.486 20.4839 32.6489 20.1636 32.8128C19.7183 33.0404 19.2713 33.2642 18.8237 33.4872C18.6278 33.589 18.6278 33.589 18.4279 33.6929C17.6313 34.0836 17.1027 34.2274 16.2506 33.9372C15.8756 33.3747 15.8756 33.3747 15.9114 32.7887C16.0852 31.956 16.3331 31.1769 16.6146 30.3754C16.6684 30.2191 16.7223 30.0628 16.7777 29.9018C16.9486 29.4067 17.121 28.9122 17.2935 28.4176C17.4102 28.0804 17.5268 27.7431 17.6433 27.4058C17.9278 26.5825 18.2138 25.7597 18.5006 24.9372C18.7305 24.9344 18.9604 24.9317 19.1973 24.9289C20.0497 24.918 20.9019 24.9035 21.7541 24.888C22.1231 24.8817 22.4922 24.8765 22.8612 24.8722C23.3914 24.8659 23.9214 24.8561 24.4515 24.8456C24.6168 24.8444 24.782 24.8432 24.9523 24.842C25.1831 24.8364 25.1831 24.8364 25.4185 24.8307C25.5538 24.8286 25.6892 24.8266 25.8286 24.8244C26.291 24.7283 26.466 24.5581 26.7506 24.1872C26.7363 23.7863 26.7363 23.7863 26.5631 23.4372C25.9192 23.1152 25.1791 23.2037 24.4698 23.1903C24.2147 23.1845 24.2147 23.1845 23.9544 23.1785C23.4099 23.1662 22.8654 23.1552 22.3209 23.1442C21.9522 23.1361 21.5836 23.1279 21.2149 23.1197C20.3102 23.0996 19.4054 23.0806 18.5006 23.0622C18.12 21.9891 17.7428 20.9149 17.3688 19.8395C17.2411 19.474 17.1125 19.1088 16.9829 18.744C16.7967 18.2189 16.6138 17.6927 16.4315 17.1662C16.3731 17.0038 16.3147 16.8415 16.2546 16.6742C15.9588 15.8088 15.7519 15.1508 16.0631 14.2497C16.6256 13.8747 16.6256 13.8747 17.1123 13.8926Z" fill="#836AB1"/>
</g>
<defs>
<filter id="filter0_d_181_1044" x="0" y="0" width="52" height="52" filterUnits="userSpaceOnUse" color-interpolation-filters="sRGB">
<feFlood flood-opacity="0" result="BackgroundImageFix"/>
<feColorMatrix in="SourceAlpha" type="matrix" values="0 0 0 0 0 0 0 0 0 0 0 0 0 0 0 0 0 0 127 0" result="hardAlpha"/>
<feOffset dy="2"/>
<feGaussianBlur stdDeviation="2"/>
<feComposite in2="hardAlpha" operator="out"/>
<feColorMatrix type="matrix" values="0 0 0 0 0.572115 0 0 0 0 0.572115 0 0 0 0 0.572115 0 0 0 0.25 0"/>
<feBlend mode="normal" in2="BackgroundImageFix" result="effect1_dropShadow_181_1044"/>
<feBlend mode="normal" in="SourceGraphic" in2="effect1_dropShadow_181_1044" result="shape"/>
</filter>
</defs>
</svg>
