<svg width="28" height="26" viewBox="0 0 28 26" fill="none" xmlns="http://www.w3.org/2000/svg">
<path d="M23.5622 22.6088C23.4699 22.6088 23.3777 22.593 23.2899 22.5636L1.07154 14.9334C0.752046 14.8226 0.5293 14.5332 0.5023 14.1952C0.477551 13.8572 0.654173 13.5362 0.952293 13.3791L26.2644 0.0968556C26.5468 -0.0489661 26.8876 -0.0263581 27.1441 0.157897C27.4029 0.343283 27.5368 0.657535 27.4906 0.974047L24.3969 21.8865C24.3598 22.1352 24.2147 22.3545 23.9998 22.4856C23.8671 22.567 23.7152 22.6088 23.5622 22.6088ZM3.47675 13.9669L22.876 20.6295L25.577 2.37122L3.47675 13.9669Z" fill="white"/>
<path d="M11.1874 26C11.0996 26 11.0108 25.9864 10.9253 25.9582C10.5776 25.8429 10.3436 25.5184 10.3436 25.1522V17.522C10.3436 17.3083 10.4246 17.1004 10.5698 16.9432L26.0383 0.269807C26.3555 -0.073835 26.8921 -0.090791 27.2319 0.227982C27.5728 0.546755 27.5908 1.0837 27.2735 1.42734L12.0311 17.8555V22.567L14.847 18.7157C15.1226 18.3404 15.6513 18.2568 16.0271 18.5348C16.4028 18.8118 16.4827 19.3431 16.2071 19.7206L11.868 25.6552C11.7049 25.8757 11.4506 26 11.1874 26Z" fill="white"/>
</svg>
