<svg width="30" height="31" viewBox="0 0 30 31" fill="none" xmlns="http://www.w3.org/2000/svg">
<path d="M27.8224 12.1272L26.3594 11.8791C26.2292 11.5166 26.082 11.1609 25.9193 10.8151L26.7808 9.60977C27.5304 8.55669 27.41 7.13441 26.4974 6.23079L24.7394 4.47252C24.2425 3.97562 23.5838 3.70187 22.8848 3.70187C22.3343 3.70187 21.8079 3.87148 21.3661 4.18939L20.1562 5.05113C19.782 4.87421 19.4023 4.71788 19.0201 4.58284L18.7782 3.14935C18.5653 1.87975 17.4763 0.958496 16.1886 0.958496H13.7048C12.4173 0.958496 11.3283 1.87975 11.1159 3.14684L10.8616 4.6364C10.5025 4.76755 10.1484 4.91655 9.80164 5.08295L8.61374 4.22739C8.16833 3.90672 7.63985 3.73735 7.08527 3.73735C6.37939 3.73735 5.72044 4.01155 5.22903 4.5096L3.46687 6.26604C2.55684 7.17607 2.43759 8.5972 3.18352 9.64502L4.05899 10.875C3.89763 11.2222 3.75252 11.5795 3.62434 11.9441L2.19063 12.1861C0.921249 12.3992 0 13.4882 0 14.7756V17.2595C0 18.5469 0.921249 19.6359 2.18834 19.8486L3.6779 20.1026C3.80905 20.462 3.95828 20.8163 4.12445 21.1628L3.27209 22.3484C2.52251 23.4015 2.6429 24.824 3.55545 25.7274L5.31349 27.4857C5.81039 27.9826 6.46912 28.2563 7.16812 28.2563C7.71858 28.2563 8.24501 28.0867 8.68652 27.769L9.91653 26.8936C10.2397 27.0437 10.5748 27.1813 10.9188 27.3051L11.1626 28.7679C11.3757 30.0372 12.4647 30.9585 13.7521 30.9585H16.2417C17.5291 30.9585 18.6184 30.0372 18.831 28.7695L19.0791 27.3062C19.4417 27.176 19.7974 27.0288 20.1432 26.8661L21.3446 27.7249C21.79 28.0455 22.3185 28.2151 22.8731 28.2151C23.5719 28.2151 24.2306 27.9414 24.7275 27.4445L26.4855 25.6862C27.3958 24.7762 27.5148 23.355 26.7689 22.3072L25.9064 21.0962C26.0735 20.7424 26.2212 20.3869 26.3482 20.0335L27.8091 19.79C29.0785 19.5769 29.9998 18.4879 29.9998 17.2004V14.7216C30.0142 13.4328 29.0996 12.3424 27.8224 12.1272ZM28.242 17.2004C28.242 17.6259 27.9375 17.9859 27.5191 18.0562L25.5814 18.3792C25.2239 18.4387 24.9355 18.6909 24.8282 19.0376C24.6561 19.5954 24.4196 20.1656 24.126 20.7314C23.9598 21.0504 23.9864 21.4306 24.1951 21.7231L25.337 23.3267C25.5833 23.6727 25.5437 24.1424 25.2427 24.4434L23.4846 26.2014C23.3173 26.3687 23.1059 26.4573 22.8731 26.4573C22.6895 26.4573 22.5163 26.4024 22.3693 26.2966L20.7726 25.1554C20.479 24.9446 20.0972 24.9181 19.7765 25.0858C19.2396 25.3669 18.669 25.6033 18.0805 25.7881C17.7372 25.8956 17.4866 26.1831 17.4268 26.537L17.0977 28.4767C17.0274 28.8963 16.6674 29.2007 16.2417 29.2007H13.7521C13.3264 29.2007 12.9666 28.8963 12.8963 28.4779L12.5734 26.5402C12.5143 26.1849 12.2644 25.897 11.9211 25.7885C11.3411 25.6054 10.7888 25.3784 10.2791 25.1135C10.1402 25.0414 9.98978 25.006 9.84009 25.006C9.64645 25.006 9.45374 25.0655 9.28871 25.1829L7.66342 26.3397C7.51694 26.4452 7.35031 26.4985 7.16812 26.4985C6.93535 26.4985 6.72386 26.4102 6.55655 26.2426L4.7953 24.4816C4.49478 24.1841 4.45656 23.7158 4.70169 23.3713L5.83672 21.7925C6.05026 21.4961 6.07635 21.1115 5.90424 20.7881C5.61562 20.2468 5.37643 19.6792 5.1931 19.1008C5.08461 18.7598 4.79828 18.5105 4.4458 18.4503L2.48154 18.1155C2.06223 18.045 1.75781 17.685 1.75781 17.2595V14.7756C1.75781 14.3501 2.06223 13.9901 2.48222 13.9196L4.39613 13.5967C4.75388 13.5365 5.04204 13.2836 5.14847 12.9357C5.32906 12.3447 5.56137 11.7732 5.839 11.2376C6.00426 10.9192 5.97771 10.5399 5.76965 10.2472L4.61563 8.62581C4.36913 8.27974 4.40872 7.81007 4.70879 7.51001L6.47278 5.75197L6.47919 5.74533C6.6378 5.58397 6.85295 5.49516 7.08527 5.49516C7.26883 5.49516 7.44232 5.55009 7.58652 5.65401L9.17221 6.79544C9.46907 7.00922 9.85405 7.03485 10.1763 6.86273C10.7176 6.57411 11.2852 6.33493 11.8629 6.15182C12.204 6.04356 12.4532 5.75769 12.5139 5.4043L12.849 3.44003C12.9192 3.02072 13.2793 2.71631 13.705 2.71631H16.1888C16.6143 2.71631 16.9743 3.02072 17.0448 3.44072L17.3678 5.35532C17.4282 5.71329 17.6816 6.00122 18.0297 6.10742C18.6232 6.28778 19.2151 6.53131 19.7894 6.8316C20.1084 6.99823 20.4886 6.97214 20.7825 6.76317L22.3897 5.61853C22.5359 5.51302 22.7026 5.45969 22.885 5.45969C23.1175 5.45969 23.329 5.54803 23.4966 5.71558L25.2576 7.47659C25.5581 7.77414 25.5965 8.24243 25.3498 8.58873L24.2075 10.187C23.9978 10.4809 23.9717 10.8622 24.139 11.1817C24.4203 11.7187 24.6565 12.2893 24.8415 12.878C24.9493 13.2213 25.2365 13.4717 25.5904 13.5314L27.5285 13.8603L27.5301 13.8606C27.9483 13.9308 28.2479 14.2856 28.242 14.7042V17.2004Z" fill="#13293D"/>
<path d="M14.8328 10.1257C11.6166 10.1257 9 12.7422 9 15.9585C9 19.1747 11.6166 21.7913 14.8328 21.7913C18.0491 21.7913 20.6656 19.1747 20.6656 15.9585C20.6656 12.7422 18.0491 10.1257 14.8328 10.1257ZM14.8328 20.0335C12.5859 20.0335 10.7578 18.2054 10.7578 15.9585C10.7578 13.7116 12.5859 11.8835 14.8328 11.8835C17.0798 11.8835 18.9078 13.7116 18.9078 15.9585C18.9078 18.2054 17.0798 20.0335 14.8328 20.0335Z" fill="#13293D"/>
</svg>
