<svg width="30" height="31" viewBox="0 0 30 31" fill="none" xmlns="http://www.w3.org/2000/svg">
<path d="M27.8224 11.2103L26.3594 10.9621C26.2292 10.5996 26.082 10.2439 25.9193 9.89807L26.7808 8.69278C27.5304 7.63969 27.41 6.21742 26.4974 5.3138L24.7394 3.55553C24.2425 3.05862 23.5838 2.78488 22.8848 2.78488C22.3343 2.78488 21.8079 2.95448 21.3661 3.2724L20.1562 4.13414C19.782 3.95721 19.4023 3.80089 19.0201 3.66585L18.7782 2.23236C18.5653 0.962753 17.4763 0.0415039 16.1886 0.0415039H13.7048C12.4173 0.0415039 11.3283 0.962753 11.1159 2.22984L10.8616 3.71941C10.5025 3.85056 10.1484 3.99956 9.80164 4.16595L8.61374 3.31039C8.16833 2.98973 7.63985 2.82036 7.08527 2.82036C6.37939 2.82036 5.72044 3.09456 5.22903 3.59261L3.46687 5.34904C2.55684 6.25908 2.43759 7.68021 3.18352 8.72803L4.05899 9.95804C3.89763 10.3053 3.75252 10.6625 3.62434 11.0271L2.19063 11.2691C0.921249 11.4822 0 12.5712 0 13.8586V16.3425C0 17.6299 0.921249 18.7189 2.18834 18.9316L3.6779 19.1856C3.80905 19.545 3.95828 19.8993 4.12445 20.2458L3.27209 21.4314C2.52251 22.4845 2.6429 23.907 3.55545 24.8104L5.31349 26.5687C5.81039 27.0656 6.46912 27.3393 7.16812 27.3393C7.71858 27.3393 8.24501 27.1697 8.68652 26.852L9.91653 25.9766C10.2397 26.1267 10.5748 26.2643 10.9188 26.3881L11.1626 27.8509C11.3757 29.1203 12.4647 30.0415 13.7521 30.0415H16.2417C17.5291 30.0415 18.6184 29.1203 18.831 27.8525L19.0791 26.3892C19.4417 26.259 19.7974 26.1118 20.1432 25.9491L21.3446 26.8079C21.79 27.1285 22.3185 27.2981 22.8731 27.2981C23.5719 27.2981 24.2306 27.0244 24.7275 26.5275L26.4855 24.7692C27.3958 23.8592 27.5148 22.438 26.7689 21.3902L25.9064 20.1792C26.0735 19.8254 26.2212 19.4699 26.3482 19.1165L27.8091 18.873C29.0785 18.6599 29.9998 17.5709 29.9998 16.2834V13.8046C30.0142 12.5158 29.0996 11.4254 27.8224 11.2103ZM28.242 16.2834C28.242 16.7089 27.9375 17.0689 27.5191 17.1392L25.5814 17.4622C25.2239 17.5217 24.9355 17.7739 24.8282 18.1207C24.6561 18.6784 24.4196 19.2486 24.126 19.8144C23.9598 20.1334 23.9864 20.5136 24.1951 20.8061L25.337 22.4097C25.5833 22.7557 25.5437 23.2254 25.2427 23.5264L23.4846 25.2844C23.3173 25.4517 23.1059 25.5403 22.8731 25.5403C22.6895 25.5403 22.5163 25.4854 22.3693 25.3796L20.7726 24.2384C20.479 24.0276 20.0972 24.0011 19.7765 24.1689C19.2396 24.4499 18.669 24.6864 18.0805 24.8711C17.7372 24.9786 17.4866 25.2661 17.4268 25.62L17.0977 27.5597C17.0274 27.9793 16.6674 28.2837 16.2417 28.2837H13.7521C13.3264 28.2837 12.9666 27.9793 12.8963 27.5609L12.5734 25.6232C12.5143 25.2679 12.2644 24.98 11.9211 24.8715C11.3411 24.6884 10.7888 24.4614 10.2791 24.1965C10.1402 24.1245 9.98978 24.089 9.84009 24.089C9.64645 24.089 9.45374 24.1485 9.28871 24.2659L7.66342 25.4227C7.51694 25.5282 7.35031 25.5815 7.16812 25.5815C6.93535 25.5815 6.72386 25.4932 6.55655 25.3256L4.7953 23.5646C4.49478 23.2671 4.45656 22.7988 4.70169 22.4543L5.83672 20.8755C6.05026 20.5791 6.07635 20.1945 5.90424 19.8711C5.61562 19.3298 5.37643 18.7622 5.1931 18.1838C5.08461 17.8428 4.79828 17.5935 4.4458 17.5333L2.48154 17.1985C2.06223 17.128 1.75781 16.768 1.75781 16.3425V13.8586C1.75781 13.4332 2.06223 13.0731 2.48222 13.0026L4.39613 12.6797C4.75388 12.6195 5.04204 12.3666 5.14847 12.0187C5.32906 11.4277 5.56137 10.8562 5.839 10.3206C6.00426 10.0022 5.97771 9.62296 5.76965 9.33022L4.61563 7.70882C4.36913 7.36275 4.40872 6.89308 4.70879 6.59302L6.47278 4.83498L6.47919 4.82834C6.6378 4.66698 6.85295 4.57817 7.08527 4.57817C7.26883 4.57817 7.44232 4.6331 7.58652 4.73701L9.17221 5.87845C9.46907 6.09222 9.85405 6.11786 10.1763 5.94574C10.7176 5.65712 11.2852 5.41794 11.8629 5.23483C12.204 5.12657 12.4532 4.8407 12.5139 4.4873L12.849 2.52304C12.9192 2.10373 13.2793 1.79932 13.705 1.79932H16.1888C16.6143 1.79932 16.9743 2.10373 17.0448 2.52373L17.3678 4.43832C17.4282 4.7963 17.6816 5.08423 18.0297 5.19043C18.6232 5.37079 19.2151 5.61432 19.7894 5.91461C20.1084 6.08124 20.4886 6.05515 20.7825 5.84618L22.3897 4.70154C22.5359 4.59602 22.7026 4.54269 22.885 4.54269C23.1175 4.54269 23.329 4.63104 23.4966 4.79858L25.2576 6.5596C25.5581 6.85715 25.5965 7.32544 25.3498 7.67174L24.2075 9.27002C23.9978 9.5639 23.9717 9.94522 24.139 10.2647C24.4203 10.8017 24.6565 11.3723 24.8415 11.961C24.9493 12.3043 25.2365 12.5547 25.5904 12.6144L27.5285 12.9433L27.5301 12.9436C27.9483 13.0138 28.2479 13.3686 28.242 13.7872V16.2834Z" fill="white"/>
<path d="M14.8328 9.20868C11.6166 9.20868 9 11.8253 9 15.0415C9 18.2578 11.6166 20.8743 14.8328 20.8743C18.0491 20.8743 20.6656 18.2578 20.6656 15.0415C20.6656 11.8253 18.0491 9.20868 14.8328 9.20868ZM14.8328 19.1165C12.5859 19.1165 10.7578 17.2884 10.7578 15.0415C10.7578 12.7946 12.5859 10.9665 14.8328 10.9665C17.0798 10.9665 18.9078 12.7946 18.9078 15.0415C18.9078 17.2884 17.0798 19.1165 14.8328 19.1165Z" fill="white"/>
</svg>
