<svg width="24" height="24" viewBox="0 0 24 24" fill="none" xmlns="http://www.w3.org/2000/svg">
<path d="M16.85 18.5799C18.4894 17.5312 19.7447 15.9793 20.4276 14.1569C21.1106 12.3345 21.1844 10.3398 20.6381 8.47193C20.0917 6.60404 18.9546 4.96357 17.3972 3.79647C15.8399 2.62937 13.9462 1.99854 12 1.99854C10.0538 1.99854 8.16012 2.62937 6.60275 3.79647C5.04538 4.96357 3.90828 6.60404 3.36193 8.47193C2.81558 10.3398 2.88942 12.3345 3.57237 14.1569C4.25533 15.9793 5.51061 17.5312 7.15 18.5799" stroke="#333333" stroke-width="1.5" stroke-linecap="round" stroke-linejoin="round"/>
<path d="M8 14C7.44287 13.2572 7.1036 12.3738 7.02021 11.449C6.93682 10.5242 7.1126 9.59446 7.52787 8.76393C7.94313 7.9334 8.58147 7.23492 9.37135 6.74675C10.1612 6.25857 11.0714 6 12 6C12.9286 6 13.8388 6.25857 14.6287 6.74675C15.4185 7.23492 16.0569 7.9334 16.4721 8.76393C16.8874 9.59446 17.0632 10.5242 16.9798 11.449C16.8964 12.3738 16.5571 13.2572 16 14" stroke="#333333" stroke-width="1.5" stroke-linecap="round" stroke-linejoin="round"/>
<path d="M12 12C12.5523 12 13 11.5523 13 11C13 10.4477 12.5523 10 12 10C11.4477 10 11 10.4477 11 11C11 11.5523 11.4477 12 12 12Z" stroke="#333333" stroke-width="1.5" stroke-linecap="round" stroke-linejoin="round"/>
</svg>
